<svg width="76" height="120" viewBox="0 0 76 120" fill="none" xmlns="http://www.w3.org/2000/svg">
<g opacity="0.1" clip-path="url(#clip0_334_318)">
<path fill-rule="evenodd" clip-rule="evenodd" d="M57.3499 35.6108L59.1522 34.7611C60.0721 34.3293 61.1797 34.7193 61.6162 35.6247L98.3656 111.938C98.8021 112.848 98.4079 113.944 97.4927 114.375L95.6904 115.225C94.7705 115.657 93.6628 115.267 93.2264 114.362L56.4769 38.0484C56.0404 37.1384 56.4347 36.0426 57.3499 35.6108Z" fill="#B0916D"/>
<path fill-rule="evenodd" clip-rule="evenodd" d="M32.4219 119.074L57.9827 58.4619L87.5239 60.7681L74.4685 94.3894L32.4219 119.074Z" fill="#F06022"/>
<path fill-rule="evenodd" clip-rule="evenodd" d="M-2.48047 34.585L58.1318 59.9329L56.0124 89.687L22.3998 76.7549L-2.48047 34.585Z" fill="#5D3794"/>
<path fill-rule="evenodd" clip-rule="evenodd" d="M56.0605 87.8497L23.2324 75.0768L58.1304 58.4619L56.0605 87.8497Z" fill="#693E97"/>
<path fill-rule="evenodd" clip-rule="evenodd" d="M85.688 -0.3125L60.1272 60.2997L30.5859 57.9889L43.6367 24.3723L85.688 -0.3125Z" fill="#80B147"/>
<path fill-rule="evenodd" clip-rule="evenodd" d="M30.5859 56.2178L43.5689 23.5645L59.9737 58.4624L30.5859 56.2178Z" fill="#84C44A"/>
<path fill-rule="evenodd" clip-rule="evenodd" d="M118.747 86.0151L58.1348 60.6672L60.2541 30.9131L93.8668 43.8405L118.747 86.0151Z" fill="#E8BA19"/>
<path fill-rule="evenodd" clip-rule="evenodd" d="M60.2046 30.9131L93.0327 43.6813L58.1348 60.3008L60.2046 30.9131Z" fill="#F0C721"/>
<path fill-rule="evenodd" clip-rule="evenodd" d="M87.5225 60.702L74.535 93.3599L58.1348 58.4619L87.5225 60.702Z" fill="#F37820"/>
<path fill-rule="evenodd" clip-rule="evenodd" d="M56.6642 53.4178C59.9587 52.096 63.6987 53.6968 65.0204 56.9913C66.3422 60.2859 64.7414 64.0259 61.4469 65.3476C58.1523 66.6693 54.4123 65.0686 53.0906 61.774C51.7689 58.4795 53.3696 54.7395 56.6642 53.4178Z" fill="white"/>
</g>
<defs>
<clipPath id="clip0_334_318">
<rect width="120" height="120" fill="white"/>
</clipPath>
</defs>
</svg>
