<svg width="12" height="13" viewBox="0 0 12 13" fill="none" xmlns="http://www.w3.org/2000/svg">
<path d="M0 10.6667V9.33333C0 8.96514 0.298477 8.66667 0.666667 8.66667C1.03486 8.66667 1.33333 8.96514 1.33333 9.33333V10.6667L1.33659 10.7324C1.35172 10.8851 1.41922 11.0286 1.52865 11.138C1.65367 11.263 1.82319 11.3333 2 11.3333H10C10.1768 11.3333 10.3463 11.263 10.4714 11.138C10.5964 11.013 10.6667 10.8435 10.6667 10.6667V9.33333C10.6667 8.96514 10.9651 8.66667 11.3333 8.66667C11.7015 8.66667 12 8.96514 12 9.33333V10.6667C12 11.1971 11.7891 11.7057 11.4141 12.0807C11.039 12.4558 10.5304 12.6667 10 12.6667H2C1.46957 12.6667 0.96101 12.4558 0.585938 12.0807C0.210865 11.7057 0 11.1971 0 10.6667ZM5.33333 0.666667C5.33333 0.298477 5.63181 0 6 0C6.36819 0 6.66667 0.298477 6.66667 0.666667V7.05729L8.86198 4.86198C9.12233 4.60163 9.54434 4.60163 9.80469 4.86198C10.065 5.12233 10.065 5.54434 9.80469 5.80469L6.47135 9.13802C6.211 9.39837 5.789 9.39837 5.52865 9.13802L2.19531 5.80469L2.14974 5.75391C1.93617 5.49206 1.95124 5.10606 2.19531 4.86198C2.43939 4.6179 2.82539 4.60284 3.08724 4.81641L3.13802 4.86198L5.33333 7.05729V0.666667Z" fill="#7545A4"/>
</svg>
