<svg width="48" height="48" viewBox="0 0 48 48" fill="none" xmlns="http://www.w3.org/2000/svg">
<path fill-rule="evenodd" clip-rule="evenodd" d="M10 12C9.46957 12 8.96086 12.2107 8.58579 12.5858C8.43941 12.7322 8.31807 12.8989 8.22452 13.0793L24 23.5963L39.7755 13.0793C39.6819 12.8989 39.5606 12.7322 39.4142 12.5858C39.0391 12.2107 38.5304 12 38 12H10ZM40 17.737L25.1094 27.6641C24.4376 28.112 23.5624 28.112 22.8906 27.6641L8 17.737V34C8 34.5304 8.21071 35.0391 8.58579 35.4142C8.96086 35.7893 9.46957 36 10 36H38C38.5304 36 39.0391 35.7893 39.4142 35.4142C39.7893 35.0391 40 34.5304 40 34V17.737ZM5.75736 9.75736C6.88258 8.63214 8.4087 8 10 8H38C39.5913 8 41.1174 8.63214 42.2426 9.75736C43.3679 10.8826 44 12.4087 44 14V34C44 35.5913 43.3679 37.1174 42.2426 38.2426C41.1174 39.3679 39.5913 40 38 40H10C8.4087 40 6.88258 39.3679 5.75736 38.2426C4.63214 37.1174 4 35.5913 4 34V14C4 12.4087 4.63214 10.8826 5.75736 9.75736Z" fill="#4A2B68"/>
</svg>
