<svg width="14" height="16" viewBox="0 0 14 16" fill="none" xmlns="http://www.w3.org/2000/svg">
<path fill-rule="evenodd" clip-rule="evenodd" d="M6.75 1.5C5.71166 1.5 4.69664 1.8079 3.83329 2.38477C2.96994 2.96163 2.29703 3.78155 1.89966 4.74085C1.50229 5.70015 1.39831 6.75573 1.60086 7.77412C1.8034 8.79248 2.30336 9.72791 3.03752 10.4621C3.03755 10.4622 3.0375 10.4621 3.03752 10.4621L6.22032 13.6442C6.36095 13.7847 6.5516 13.8636 6.75038 13.8636C6.94916 13.8636 7.13981 13.7847 7.28044 13.6442L10.4624 10.4622C10.4624 10.4622 10.4624 10.4622 10.4624 10.4622C11.1966 9.72798 11.6966 8.79251 11.8991 7.77412C12.1017 6.75573 11.9977 5.70015 11.6003 4.74085C11.203 3.78155 10.5301 2.96163 9.66672 2.38477C8.80337 1.8079 7.78834 1.5 6.75 1.5ZM2.99994 1.13756C4.10996 0.395872 5.41499 0 6.75 0C8.08501 0 9.39004 0.395872 10.5001 1.13756C11.6101 1.87924 12.4753 2.93343 12.9862 4.16681C13.4971 5.40019 13.6308 6.75737 13.3703 8.06673C13.1099 9.37609 12.4671 10.5788 11.5231 11.5228L8.34083 14.7051C7.91894 15.1266 7.34672 15.3636 6.75038 15.3636C6.15403 15.3636 5.58208 15.1268 5.16019 14.7054L1.97699 11.5229C1.03302 10.5789 0.390099 9.37609 0.129677 8.06673C-0.130745 6.75737 0.00294775 5.40019 0.513849 4.16681C1.02475 2.93343 1.88992 1.87924 2.99994 1.13756ZM4.62868 4.6285C5.19129 4.06589 5.95435 3.74982 6.75 3.74982C7.54565 3.74982 8.30871 4.06589 8.87132 4.6285C9.43393 5.19111 9.75 5.95417 9.75 6.74982C9.75 7.54547 9.43393 8.30853 8.87132 8.87114C8.30871 9.43375 7.54565 9.74982 6.75 9.74982C5.95435 9.74982 5.19129 9.43375 4.62868 8.87114C4.06607 8.30853 3.75 7.54547 3.75 6.74982C3.75 5.95417 4.06607 5.19111 4.62868 4.6285ZM6.75 5.24982C6.35217 5.24982 5.97064 5.40785 5.68934 5.68916C5.40804 5.97046 5.25 6.35199 5.25 6.74982C5.25 7.14764 5.40804 7.52917 5.68934 7.81048C5.97064 8.09178 6.35217 8.24982 6.75 8.24982C7.14783 8.24982 7.52936 8.09178 7.81066 7.81048C8.09196 7.52917 8.25 7.14764 8.25 6.74982C8.25 6.35199 8.09196 5.97046 7.81066 5.68916C7.52936 5.40785 7.14783 5.24982 6.75 5.24982Z" fill="white"/>
</svg>
