<svg width="18" height="18" viewBox="0 0 18 18" fill="none" xmlns="http://www.w3.org/2000/svg">
<path fill-rule="evenodd" clip-rule="evenodd" d="M3 2C2.73478 2 2.48043 2.10536 2.29289 2.29289C2.10536 2.48043 2 2.73478 2 3V15C2 15.2652 2.10536 15.5196 2.29289 15.7071C2.48043 15.8946 2.73478 16 3 16H15C15.2652 16 15.5196 15.8946 15.7071 15.7071C15.8946 15.5196 16 15.2652 16 15V3C16 2.73478 15.8946 2.48043 15.7071 2.29289C15.5196 2.10536 15.2652 2 15 2H3ZM0.87868 0.87868C1.44129 0.31607 2.20435 0 3 0H15C15.7956 0 16.5587 0.31607 17.1213 0.87868C17.6839 1.44129 18 2.20435 18 3V15C18 15.7957 17.6839 16.5587 17.1213 17.1213C16.5587 17.6839 15.7957 18 15 18H3C2.20435 18 1.44129 17.6839 0.87868 17.1213C0.31607 16.5587 0 15.7956 0 15V3C0 2.20435 0.31607 1.44129 0.87868 0.87868ZM5 4C5.55228 4 6 4.44772 6 5V5.01C6 5.56228 5.55228 6.01 5 6.01C4.44772 6.01 4 5.56228 4 5.01V5C4 4.44772 4.44772 4 5 4ZM5 7C5.55228 7 6 7.44772 6 8V13C6 13.5523 5.55228 14 5 14C4.44772 14 4 13.5523 4 13V8C4 7.44772 4.44772 7 5 7ZM8 13C8 13.5523 8.44772 14 9 14C9.55229 14 10 13.5523 10 13V10C10 9.73478 10.1054 9.48043 10.2929 9.29289C10.4804 9.10536 10.7348 9 11 9C11.2652 9 11.5196 9.10536 11.7071 9.29289C11.8946 9.48043 12 9.73478 12 10V13C12 13.5523 12.4477 14 13 14C13.5523 14 14 13.5523 14 13V10C14 9.20435 13.6839 8.44129 13.1213 7.87868C12.5587 7.31607 11.7957 7 11 7C10.5483 7 10.1071 7.10187 9.70711 7.29289C9.52614 7.11193 9.27614 7 9 7C8.44772 7 8 7.44772 8 8V13Z" fill="#343038"/>
</svg>
