<svg width="9" height="12" viewBox="0 0 9 12" fill="none" xmlns="http://www.w3.org/2000/svg">
<path d="M7 1.75C7 1.59529 6.9385 1.44696 6.8291 1.33757C6.71971 1.22817 6.57138 1.16667 6.41667 1.16667H5.25C5.25 1.48883 4.98883 1.75 4.66667 1.75H3.5C3.17783 1.75 2.91667 1.48883 2.91667 1.16667H1.75C1.59529 1.16667 1.44696 1.22817 1.33757 1.33757C1.22817 1.44696 1.16667 1.59529 1.16667 1.75V9.91667L1.16952 9.9742C1.18275 10.1078 1.24182 10.2334 1.33757 10.3291C1.44696 10.4385 1.59529 10.5 1.75 10.5H6.41667C6.57138 10.5 6.71971 10.4385 6.8291 10.3291C6.9385 10.2197 7 10.0714 7 9.91667V1.75ZM3.5 8.7557V8.75C3.5 8.42783 3.76117 8.16667 4.08333 8.16667C4.4055 8.16667 4.66667 8.42783 4.66667 8.75V8.7557C4.66667 9.07786 4.4055 9.33903 4.08333 9.33903C3.76117 9.33903 3.5 9.07786 3.5 8.7557ZM8.16667 9.91667C8.16667 10.3808 7.98216 10.8258 7.65397 11.154C7.32578 11.4822 6.8808 11.6667 6.41667 11.6667H1.75C1.28587 11.6667 0.840884 11.4822 0.512695 11.154C0.184507 10.8258 0 10.3808 0 9.91667V1.75C0 1.28587 0.184507 0.840884 0.512695 0.512695C0.840884 0.184507 1.28587 0 1.75 0H6.41667C6.8808 0 7.32578 0.184507 7.65397 0.512695C7.98216 0.840884 8.16667 1.28587 8.16667 1.75V9.91667Z" fill="white"/>
</svg>
