<svg width="18" height="18" viewBox="0 0 18 18" fill="none" xmlns="http://www.w3.org/2000/svg">
<path fill-rule="evenodd" clip-rule="evenodd" d="M0.107998 0.547978C0.278335 0.21184 0.623171 1.49012e-08 1 1.49012e-08H5.267C5.58555 1.49012e-08 5.88504 0.151766 6.07342 0.408647L10.348 6.23779L16.2929 0.292893C16.6834 -0.0976311 17.3166 -0.0976311 17.7071 0.292893C18.0976 0.683417 18.0976 1.31658 17.7071 1.70711L11.5446 7.86959L17.8064 16.4086C18.0293 16.7125 18.0623 17.1159 17.892 17.452C17.7217 17.7882 17.3768 18 17 18H12.733C12.4145 18 12.115 17.8482 11.9266 17.5914L7.65201 11.7622L1.70711 17.7071C1.31659 18.0976 0.683422 18.0976 0.292898 17.7071C-0.0976264 17.3166 -0.0976264 16.6834 0.292898 16.2929L6.45539 10.1304L0.193592 1.59135C-0.0292499 1.28747 -0.0623392 0.884117 0.107998 0.547978ZM9.37029 8.28658C9.40118 8.33799 9.43711 8.38722 9.47807 8.43357L15.0266 16H13.2398L2.97338 2H4.76026L9.37029 8.28658Z" fill="#343038"/>
</svg>
